# xmcd
#
# Track frame offsets:
#	150
#	16917
#	31403
#	47857
#	69318
#	84353
#	102440
#	120757
#	138768
#	155580
#	172347
#	186833
#	203287
#	224748
#	239783
#	257870
#	276187
#	294198
#
# Disc length: 4146 seconds
#
# Revision: 1
# Processed by: cddbd v1.5.2PL0 Copyright (c) Steve Scherf et al.
# Submitted via: audiograbber 1.83.01
#
DISCID=04103012
DTITLE=Various Artist - SINC0310
DYEAR=1900
DGENRE=Karaoke
TTITLE0=Messina, Jo Dee - I Wish
TTITLE1=Andrews, Jessica - Good Times
TTITLE2=Cagle, Chris - Chicks Dig It
TTITLE3=Shelton, Blake - Playboys Of The Southwestern World
TTITLE4=Emerick, Scotty - I Can't Take You Anywhere
TTITLE5=Jackson, Alan and Jimmy Buffett - It's Five O'Clock Somewhere
TTITLE6=McBride, Martina - This One's For The Girls
TTITLE7=Urban, Keith - Who Wouldn't Wanna Be Me
TTITLE8=Carter, Deana - I'm Just A Girl
TTITLE9=Messina, Jo Dee - I Wish (w Vocal)
TTITLE10=Andrews, Jessica - Good Times (w Vocals)
TTITLE11=Cagle, Chris - Chicks Dig It (w Vocals)
TTITLE12=Shelton, Blake - Playboys Of The Southwestern World (w Vocals)
TTITLE13=Emerick, Scotty - I Can't Take You Anywhere (w Vocals)
TTITLE14=Jackson, Alan and Jimmy Buffett - It's Five O'Clock Somewhere (w Vocals)
TTITLE15=McBride, Martina - This One's For The Girls (w Vocals)
TTITLE16=Urban, Keith - Who Wouldn't Wanna Be Me (w Vocals)
TTITLE17=Carter, Deana - I'm Just A Girl (w Vocals)
EXTD=Sing It Now Country October, 2003
EXTT0=
EXTT1=
EXTT2=
EXTT3=
EXTT4=
EXTT5=
EXTT6=
EXTT7=
EXTT8=
EXTT9=
EXTT10=
EXTT11=
EXTT12=
EXTT13=
EXTT14=
EXTT15=
EXTT16=
EXTT17=
PLAYORDER=
